<svg xmlns="http://www.w3.org/2000/svg" width="32" height="32" viewBox="0 0 32 32">
    <g fill="none" fill-rule="evenodd">
        <path d="M0 0h32v32H0z"/>
        <path fill="#FFF" d="M16.58 5.332c2.367.002 2.754.018 3.812.065a7.838 7.838 0 0 1 2.59.497 5.457 5.457 0 0 1 3.12 3.114c.317.837.483 1.726.496 2.621.066 1.132.066 1.499.069 4.387v.582c-.003 2.363-.02 2.75-.067 3.806a7.778 7.778 0 0 1-.496 2.587 5.464 5.464 0 0 1-3.12 3.114 7.818 7.818 0 0 1-2.59.496c-.929.054-1.345.064-3.067.065h-1.91c-2.366-.002-2.754-.018-3.813-.065a7.811 7.811 0 0 1-2.589-.533 5.457 5.457 0 0 1-3.12-3.113 7.79 7.79 0 0 1-.497-2.587c-.056-.969-.065-1.378-.066-3.294v-1.675c.002-2.362.02-2.749.066-3.807a7.74 7.74 0 0 1 .497-2.584 5.453 5.453 0 0 1 3.12-3.114 7.837 7.837 0 0 1 2.588-.497c.93-.053 1.345-.063 3.068-.065zm-.589 5.175a5.471 5.471 0 0 0-5.477 5.467 5.471 5.471 0 0 0 5.477 5.468 5.473 5.473 0 0 0 5.477-5.468 5.473 5.473 0 0 0-5.477-5.467zm0 1.916a3.555 3.555 0 0 1 3.558 3.551 3.555 3.555 0 0 1-3.558 3.552 3.555 3.555 0 0 1-3.558-3.552 3.555 3.555 0 0 1 3.558-3.551zm5.695-3.394a1.274 1.274 0 1 0 0 2.55 1.275 1.275 0 1 0 0-2.55z"/>
    </g>
</svg>
