<svg xmlns="http://www.w3.org/2000/svg" width="32" height="32" viewBox="0 0 32 32">
    <g fill="none" fill-rule="evenodd">
        <path d="M0 0h32v32H0z"/>
        <path fill="#FFF" d="M28.79 9.601a3.338 3.338 0 0 0-2.347-2.352c-2.086-.573-10.434-.582-10.434-.582s-8.346-.01-10.434.538a3.41 3.41 0 0 0-2.353 2.369c-.55 2.086-.555 6.413-.555 6.413s-.006 4.348.54 6.413a3.338 3.338 0 0 0 2.35 2.351c2.107.573 10.432.582 10.432.582s8.348.01 10.434-.537a3.351 3.351 0 0 0 2.354-2.348c.552-2.085.556-6.41.556-6.41s.027-4.35-.542-6.437zM13.34 19.995l.007-7.993 6.937 4.003-6.944 3.99z"/>
    </g>
</svg>
