<?xml version="1.0" encoding="utf-8"?>
<!-- Generator: Adobe Illustrator 24.0.0, SVG Export Plug-In . SVG Version: 6.00 Build 0)  -->
<svg version="1.1" id="Layer_1" xmlns="http://www.w3.org/2000/svg" xmlns:xlink="http://www.w3.org/1999/xlink" x="0px" y="0px"
	 viewBox="0 0 1417.32 1417.32" style="enable-background:new 0 0 1417.32 1417.32;" xml:space="preserve">
<style type="text/css">
	.st0{fill:#7B589C;}
	.st1{fill:#A1578C;}
	.st2{fill:#E9A956;}
	.st3{fill:#DB7A47;}
	.st4{fill:#6861A5;}
	.st5{fill:#935080;}
	.st6{fill:#C85267;}
	.st7{fill:#AF5688;}
	.st8{fill:#F4D178;}
	.st9{fill:#E2C26F;}
	.st10{fill:#DF8A5B;}
	.st11{fill:#D38356;}
	.st12{fill:#965894;}
	.st13{fill:#854E83;}
	.st14{fill:#D45384;}
	.st15{fill:#CB5480;}
	.st16{fill:#FFFFFF;}
</style>
<path class="st0" d="M745.11,299.69c112.35,0,214.03,45.68,287.51,119.46l202.33-4.46c-10.15-17.06-21.28-33.7-33.36-49.85
	l-619.99-205c-13.13,3.92-26.14,8.32-39.02,13.21l124.77,134.17C692.52,302.33,718.51,299.69,745.11,299.69z"/>
<path class="st1" d="M675.24,290.51L529.72,179.19c-5.82,3.42-11.57,6.98-17.28,10.61l80.62,143.05
	C618.42,315.86,645.91,301.57,675.24,290.51z"/>
<path class="st2" d="M339.33,705.47c0-18.68,1.37-37.02,3.82-55.03l-166.98,29.74c-1.19,26.99-0.48,54.06,2.15,80.97l179.6,65.99
	C345.86,788.73,339.33,747.87,339.33,705.47z"/>
<path class="st3" d="M258.73,381.92c-30.35,41.86-54.24,86.93-71.8,133.84l114.8-109.41L258.73,381.92z"/>
<path class="st4" d="M581.59,159.84l619.99,205c-16.19-21.64-34.08-42.41-53.76-62.08c-38.51-38.51-81.16-70.33-126.51-95.51
	L922,211.13l-143.97-74.15C712.01,133.19,645.46,140.76,581.59,159.84z"/>
<path class="st1" d="M1122,176.69L694.68,67.42l83.35,42.93c84.19,4.84,167.52,28.22,243.28,70.27L1122,176.69z"/>
<path class="st0" d="M1003.76,194.36c-75.77-42.05-159.09-65.43-243.28-70.27l143.97,74.15L1003.76,194.36z"/>
<path class="st1" d="M675.24,290.51L529.72,179.19c-0.33,0.19-0.65,0.41-0.97,0.6l38.49,107.26l25.82,45.81
	C618.42,315.86,645.91,301.57,675.24,290.51z"/>
<path class="st5" d="M512.43,189.81l54.8,97.24l-38.49-107.26C523.26,183.03,517.82,186.38,512.43,189.81z"/>
<path class="st6" d="M523.75,180.62c-19.32,8.14-38.23,17.53-56.73,27.89l10.1,80.99l-87.65-28.74
	c-16.25,13.02-32.01,26.95-47.07,42.01c-21.73,21.73-41.31,44.79-58.8,68.91l143.7,81.65c40.21-50.61,92.22-91.36,151.91-118.15
	L523.75,180.62z"/>
<path class="st3" d="M446.59,188.07c-26.91,15.07-52.86,32.47-77.54,52.25l87.65,28.74L446.59,188.07z"/>
<path class="st7" d="M1234.95,786.75l-16.36-124.39l70.84-124.78c-4.6-14.96-9.83-29.76-15.69-44.37L1145.38,639
	c3.57,21.64,5.51,43.82,5.51,66.47c0,39.4-5.72,77.45-16.2,113.48l112.51,155.62c14.82-27.64,27.19-56.24,37.13-85.49
	L1234.95,786.75z"/>
<path class="st4" d="M1303.1,889.08l58.66,121.58l-28.37-517.45l-25.19,44.37C1343.41,652.07,1341.7,775.45,1303.1,889.08z"/>
<path class="st0" d="M1234.95,800.23l49.37,102.33c38.6-113.63,40.31-237.01,5.1-351.5l-70.84,124.78L1234.95,800.23z"/>
<path class="st3" d="M326.61,396.11l-114.8,109.41c-12.7,33.92-22.01,68.82-28.03,104.16h60.56V639l-65.69,8.67
	c-1.1,10.82-2,21.66-2.48,32.52l166.98-29.74c10.02-73.9,39.92-141.44,84.16-197.12L326.61,396.11z"/>
<path class="st2" d="M211.16,601.01H150.6c-2.15,12.61-3.83,25.28-5.12,37.99l65.69-8.67V601.01z"/>
<path class="st8" d="M357.92,827.15l-179.6-65.99c2.3,23.52,6.07,46.92,11.28,70.06l54.74,3.82l57.4,125.04l-6.57,43.25l4.16,56.44
	c13.32,16.72,27.6,32.94,43.08,48.41c9.05,9.05,18.35,17.7,27.84,26l151.75-89.85C444.9,993.49,386.16,917.1,357.92,827.15z"/>
<path class="st3" d="M95.36,827.15L25.11,852.6l240.72,240l-2.42-32.82c-54.69-68.65-91.34-146.94-109.73-228.56L95.36,827.15z"/>
<path class="st9" d="M311.55,981.51l-9.81-21.43l-6.57,43.25l4.16,56.44c2.89,3.62,5.84,7.21,8.82,10.79l-3.31-44.89L311.55,981.51z
	"/>
<path class="st2" d="M306.4,982.23L249,857.19l-54.74-3.82c18.39,81.62,55.04,159.91,109.73,228.56l-4.16-56.44L306.4,982.23z"/>
<path class="st10" d="M667.35,1212.6l20.02,27.8l-36.46,26.64c18.93,3.16,37.97,5.47,57.08,6.71l-11.39-165.51
	c-63.96-7.63-123.34-30.09-174.6-63.91l-151.75,89.85c34.23,29.99,71.24,55.09,110.06,75.49l101.29-26.36L667.35,1212.6z"/>
<path class="st3" d="M445.86,1225.2l-67.43,17.55l166.35,92.2l71.69-52.38C557.55,1272.73,499.91,1253.61,445.86,1225.2z"/>
<path class="st11" d="M691.67,1272.43l12.27-8.96l-16.57-23.05l-36.46,26.64C664.44,1269.31,678.04,1271.12,691.67,1272.43z"/>
<path class="st3" d="M697.71,1262.36l-20.02-27.81l-85.75-29.27l-101.29,26.36c54.06,28.41,111.69,47.53,170.6,57.36L697.71,1262.36
	z"/>
<path class="st12" d="M1201.58,552.6l6.76-36.84l-6.76-30.48l41.52-56.24c-2.67-4.81-5.34-9.61-8.16-14.36l-202.33,4.46
	c58.27,58.51,98.73,134.72,112.76,219.85l128.36-145.79c-2.73-6.8-5.6-13.56-8.6-20.28L1201.58,552.6z"/>
<path class="st0" d="M1266.03,405.62l-27.07-38.63l-10.6,14.36c7.99,14.38,15.38,29,22.03,43.88L1266.03,405.62z"/>
<path class="st13" d="M1270.56,485.7c-1.78-4.26-0.29-1.01-2.18-5.24l-56.32,70.6L1270.56,485.7z"/>
<path class="st7" d="M1218.81,514.22l-6.76,36.84l63.56-79.67c-6.65-14.88-14.04-29.5-22.03-43.88l-41.52,56.24L1218.81,514.22z"/>
<path class="st14" d="M1154.64,1101.22l-182.1-59.66c-64.87,43.98-143.14,69.69-227.42,69.69c-16.43,0-32.6-1.09-48.52-2.99
	l11.39,165.51c44.07,2.86,88.41,0.61,132.05-6.72l28.79-41.85l86.34-34.54l42.69,25.35c54.13-26.8,104.89-62.73,149.97-107.81
	C1150.14,1105.89,1152.38,1103.55,1154.64,1101.22z"/>
<path class="st6" d="M841.47,1243.49l-28.79,41.85c54.29-9.12,107.52-26.13,157.82-51.04l-42.69-25.35L841.47,1243.49z"/>
<path class="st15" d="M1177.38,991.63l24.2,24.88l19.2,2.18c9.5-14.4,18.35-29.1,26.41-44.12l-112.51-155.62
	c-26.7,91.8-84.86,170.2-162.15,222.61l182.1,59.66c11.58-11.98,22.45-24.38,32.78-37.07l-34.24-89.57L1177.38,991.63z"/>
<path class="st14" d="M1281.27,1056.48l-45.25-5.14c-10.28,15.57-21.41,30.73-33.37,45.45l14.17,37.07L1281.27,1056.48z"/>
<path class="st7" d="M1203.04,1041.5l-24.2-24.88l-24.2-17.06l34.24,89.57c11.96-14.72,23.09-29.89,33.37-45.45L1203.04,1041.5z"/>
<path class="st14" d="M857.36,1276.16l228.4-19.44l-49.11-36.16c-52.52,19.83-107.16,31.5-162.09,35.23L857.36,1276.16z"/>
<g>
	<polygon class="st16" points="742.05,428.58 491.6,929.47 596.65,929.47 742.02,640.48 807.03,771.07 913.29,771.07 	"/>
	<polygon class="st16" points="945.01,835.14 840.01,835.14 886.83,929.47 992.54,929.47 	"/>
</g>
<polygon class="st16" points="742.05,738.54 693.75,835.14 790.35,835.14 "/>
</svg>
